<?xml version="1.0" encoding="UTF-8" standalone="no"?><!DOCTYPE svg PUBLIC "-//W3C//DTD SVG 1.1//EN" "http://www.w3.org/Graphics/SVG/1.1/DTD/svg11.dtd"><svg width="100%" height="100%" viewBox="0 0 285 284" version="1.1" xmlns="http://www.w3.org/2000/svg" xmlns:xlink="http://www.w3.org/1999/xlink" xml:space="preserve" xmlns:serif="http://www.serif.com/" style="fill-rule:evenodd;clip-rule:evenodd;stroke-linecap:round;stroke-linejoin:round;stroke-miterlimit:1.5;"><path d="M129.235,163.681c-0,-5.338 -2.12,-10.457 -5.895,-14.231c-3.774,-3.775 -8.893,-5.895 -14.231,-5.895l-0.774,0c-5.337,0 -10.456,2.12 -14.23,5.895c-3.775,3.774 -5.895,8.893 -5.895,14.231l-0,92.499c-0,11.329 9.184,20.513 20.512,20.513l0,-0c11.329,-0 20.513,-9.184 20.513,-20.513l-0,-92.499Z" style="fill:#0648b3;stroke:#0648b3;stroke-width:0.75px;"/><path d="M195.985,163.681c-0,-5.338 -2.12,-10.457 -5.895,-14.231c-3.774,-3.775 -8.893,-5.895 -14.231,-5.895l-0.774,0c-5.337,0 -10.456,2.12 -14.23,5.895c-3.775,3.774 -5.895,8.893 -5.895,14.231l-0,92.499c-0,11.329 9.184,20.513 20.512,20.513l0,-0c11.329,-0 20.513,-9.184 20.513,-20.513l-0,-92.499Z" style="fill:#0648b3;stroke:#0648b3;stroke-width:0.75px;"/><circle cx="107.484" cy="105.313" r="25.758" style="fill:#ee5050;stroke:#ee5050;stroke-width:0.75px;"/><circle cx="174.984" cy="105.313" r="25.758" style="fill:#ee5050;stroke:#ee5050;stroke-width:0.75px;"/><path d="M156.624,260.243c0.752,6.082 4.156,11.52 9.298,14.853c5.143,3.333 11.497,4.22 17.355,2.423c16.805,-5.123 32.582,-13.344 46.484,-24.315c61.371,-48.433 71.875,-137.58 23.443,-198.951c-48.433,-61.371 -137.58,-71.875 -198.951,-23.443c-61.371,48.433 -71.875,137.58 -23.443,198.951c18.104,22.94 42.719,39.555 70.323,47.874c5.927,1.82 12.357,0.914 17.551,-2.473c5.194,-3.386 8.617,-8.904 9.342,-15.062c0.065,0.007 0.065,0.007 0.065,0.007c1.184,-10.053 -4.999,-19.511 -14.682,-22.46c-19.568,-5.782 -37.004,-17.524 -49.815,-33.758c-34.154,-43.278 -26.746,-106.142 16.531,-140.295c43.278,-34.154 106.142,-26.746 140.295,16.531c34.154,43.278 26.746,106.142 -16.531,140.295c-9.81,7.742 -20.944,13.542 -32.804,17.151c-9.618,2.948 -15.73,12.376 -14.496,22.359c0.009,0.105 0.022,0.209 0.035,0.313Z" style="fill:#0648b3;stroke:#0648b3;stroke-width:0.75px;"/></svg>